<?xml version="1.0" encoding="utf-8"?>
<!-- Generator: Adobe Illustrator 25.3.0, SVG Export Plug-In . SVG Version: 6.00 Build 0)  -->
<svg version="1.1" id="Layer_1" xmlns="http://www.w3.org/2000/svg" xmlns:xlink="http://www.w3.org/1999/xlink" x="0px" y="0px"
	 viewBox="0 0 1143 663.7" style="enable-background:new 0 0 1143 663.7;" xml:space="preserve">
<style type="text/css">
	.st0{fill:#3F3D56;}
	.st1{opacity:0.15;enable-background:new    ;}
	.st2{fill:url(#SVGID_1_);}
	.st3{fill:#2F2E41;}
	.st4{fill:#FBBEBE;}
	.st5{opacity:0.1;enable-background:new    ;}
	.st6{fill:#E8E8F0;}
	.st7{fill:#B6242E;}
</style>
<path class="st0" d="M1143,616.2c0,6.9-50.2,13.2-133.2,18c-15.1,0.9-31.3,1.7-48.4,2.5c-14.8,0.7-30.4,1.3-46.6,1.9
	c-15.7,0.6-32.1,1.1-49,1.6c-53.5,1.5-112.7,2.6-175.6,3.2c-15.3,0.1-30.7,0.2-46.4,0.3c-16.3,0.1-32.8,0.1-49.5,0.1
	c-303.1,0-548.9-12.3-548.9-27.5s245.7-27.5,548.9-27.5c130.5,0,250.4,2.3,344.6,6.1l10.3,0.4h0.1
	C1067.7,600.3,1143,607.9,1143,616.2z"/>
<g class="st1">
	<image style="overflow:visible;" width="1128" height="86" xlink:href="652910A3.png"  transform="matrix(1 0 0 1 37 580.73)">
	</image>
	<g>
		<path d="M1143,616.2c0,6.9-50.2,13.2-133.2,18c-15.1,0.9-31.3,1.7-48.4,2.5c-14.8,0.7-30.4,1.3-46.6,1.9
			c-15.7,0.6-32.1,1.1-49,1.6c-53.5,1.5-112.7,2.6-175.6,3.2c-15.3,0.1-30.7,0.2-46.4,0.3c-16.3,0.1-32.8,0.1-49.5,0.1
			c-303.1,0-548.9-12.3-548.9-27.5s245.7-27.5,548.9-27.5c130.5,0,250.4,2.3,344.6,6.1l10.3,0.4h0.1
			C1067.7,600.3,1143,607.9,1143,616.2z"/>
	</g>
</g>
<path class="st0" d="M1097.8,611.4c0,5.7-50.2,11-133.2,15c-15.1,0.7-31.3,1.4-48.4,2.1c-14.8,0.6-30.4,1.1-46.6,1.6
	c-15.7,0.5-32.1,0.9-49,1.3c-53.5,1.3-112.7,2.2-175.6,2.7c-15.2,0.1-30.7,0.2-46.4,0.3c-16.3,0.1-32.8,0.1-49.5,0.1
	C245.7,634.4,0,624.1,0,611.4s245.7-23,548.9-23c130.5,0,250.3,1.9,344.5,5.1l10.3,0.3h0.1C1022.5,598.1,1097.8,604.3,1097.8,611.4z
	"/>
<path class="st0" d="M101.8,402.5L88,360.3l330-3.6l13.5,41.8L101.8,402.5z"/>
<path class="st1" d="M101.8,402.5L88,360.3l330-3.6l13.5,41.8L101.8,402.5z"/>
<path class="st0" d="M79.8,402.5L66,360.3l330-3.6l13.5,41.8L79.8,402.5z"/>
<path class="st0" d="M683.1,337.6c-34.1,0-61-13.5-80.7-40.6c-19.7-27.1-29.5-59.9-29.5-98.4c0-38.8,9.5-71.5,28.5-98.2
	c19-26.7,45.8-40,80.5-40c36.7,0,64.4,14.1,83,42.2s27.9,60.7,27.9,97.7c0,36.7-9.6,68.8-28.9,96.3
	C744.7,323.9,717.7,337.6,683.1,337.6z M684.1,307.2c22.4,0,39.2-9.8,50.3-29.4c11.1-19.6,16.7-44.2,16.7-74
	c0-33.1-5.7-60.3-17-81.4c-11.4-21.1-28.8-31.7-52.3-31.7c-44.7,0-67,35.5-67,106.4C614.8,270.5,637.9,307.2,684.1,307.2
	L684.1,307.2z M695.3,598.9H646L969.1,65.7h48.4L695.3,598.9z M981.2,604.4c-34.6,0-61.6-13.7-81-41c-19.4-27.3-29.1-60.2-29.2-98.5
	c0-38.5,9.4-71.2,28.3-97.8c18.9-26.7,45.8-40,80.7-40c36.5,0,63.9,14.1,82.4,42.2c18.5,28.1,27.7,60.7,27.7,97.6
	c0,36.5-9.6,68.5-28.7,96.1C1042.3,590.6,1015.5,604.4,981.2,604.4L981.2,604.4z M981.8,573.2c22.3,0,39-9.6,50.1-28.8
	c11-19.2,16.6-43.8,16.6-73.7c0-32-5.6-58.8-16.8-80.5s-28.6-32.5-52.2-32.6C934.5,357.5,912,393,912,464
	C912,536.8,935.2,573.2,981.8,573.2L981.8,573.2z"/>
<path class="st0" d="M683.1,337.6c-34.1,0-61-13.5-80.7-40.6c-19.7-27.1-29.5-59.9-29.5-98.4c0-38.8,9.5-71.5,28.5-98.2
	c19-26.7,45.8-40,80.5-40c36.7,0,64.4,14.1,83,42.2s27.9,60.7,27.9,97.7c0,36.7-9.6,68.8-28.9,96.3
	C744.7,323.9,717.7,337.6,683.1,337.6z M684.1,307.2c22.4,0,39.2-9.8,50.3-29.4c11.1-19.6,16.7-44.2,16.7-74
	c0-33.1-5.7-60.3-17-81.4c-11.4-21.1-28.8-31.7-52.3-31.7c-44.7,0-67,35.5-67,106.4C614.8,270.5,637.9,307.2,684.1,307.2
	L684.1,307.2z M695.3,598.9H646L969.1,65.7h48.4L695.3,598.9z M981.2,604.4c-34.6,0-61.6-13.7-81-41c-19.4-27.3-29.1-60.2-29.2-98.5
	c0-38.5,9.4-71.2,28.3-97.8c18.9-26.7,45.8-40,80.7-40c36.5,0,63.9,14.1,82.4,42.2c18.5,28.1,27.7,60.7,27.7,97.6
	c0,36.5-9.6,68.5-28.7,96.1C1042.3,590.6,1015.5,604.4,981.2,604.4L981.2,604.4z M981.8,573.2c22.3,0,39-9.6,50.1-28.8
	c11-19.2,16.6-43.8,16.6-73.7c0-32-5.6-58.8-16.8-80.5s-28.6-32.5-52.2-32.6C934.5,357.5,912,393,912,464
	C912,536.8,935.2,573.2,981.8,573.2L981.8,573.2z"/>
<path class="st1" d="M683.1,337.6c-34.1,0-61-13.5-80.7-40.6c-19.7-27.1-29.5-59.9-29.5-98.4c0-38.8,9.5-71.5,28.5-98.2
	c19-26.7,45.8-40,80.5-40c36.7,0,64.4,14.1,83,42.2s27.9,60.7,27.9,97.7c0,36.7-9.6,68.8-28.9,96.3
	C744.7,323.9,717.7,337.6,683.1,337.6z M684.1,307.2c22.4,0,39.2-9.8,50.3-29.4c11.1-19.6,16.7-44.2,16.7-74
	c0-33.1-5.7-60.3-17-81.4c-11.4-21.1-28.8-31.7-52.3-31.7c-44.7,0-67,35.5-67,106.4C614.8,270.5,637.9,307.2,684.1,307.2
	L684.1,307.2z M695.3,598.9H646L969.1,65.7h48.4L695.3,598.9z M981.2,604.4c-34.6,0-61.6-13.7-81-41c-19.4-27.3-29.1-60.2-29.2-98.5
	c0-38.5,9.4-71.2,28.3-97.8c18.9-26.7,45.8-40,80.7-40c36.5,0,63.9,14.1,82.4,42.2c18.5,28.1,27.7,60.7,27.7,97.6
	c0,36.5-9.6,68.5-28.7,96.1C1042.3,590.6,1015.5,604.4,981.2,604.4L981.2,604.4z M981.8,573.2c22.3,0,39-9.6,50.1-28.8
	c11-19.2,16.6-43.8,16.6-73.7c0-32-5.6-58.8-16.8-80.5s-28.6-32.5-52.2-32.6C934.5,357.5,912,393,912,464
	C912,536.8,935.2,573.2,981.8,573.2L981.8,573.2z"/>
<path class="st0" d="M652.1,337.6c-34.1,0-61-13.5-80.7-40.6c-19.7-27.1-29.5-59.9-29.5-98.4c0-38.8,9.5-71.5,28.5-98.2
	c19-26.7,45.8-40,80.5-40c36.7,0,64.4,14.1,83,42.2s27.9,60.7,27.9,97.7c0,36.7-9.6,68.8-28.9,96.3
	C713.7,323.9,686.7,337.6,652.1,337.6z M653.1,307.2c22.4,0,39.2-9.8,50.3-29.4c11.1-19.6,16.7-44.2,16.7-74
	c0-33.1-5.7-60.3-17-81.4c-11.4-21.1-28.8-31.7-52.3-31.7c-44.7,0-67,35.5-67,106.4C583.8,270.5,606.9,307.2,653.1,307.2
	L653.1,307.2z M664.3,598.9H615L938.1,65.7h48.4L664.3,598.9z M950.2,604.4c-34.6,0-61.6-13.7-81-41c-19.4-27.3-29.1-60.2-29.2-98.5
	c0-38.5,9.4-71.2,28.3-97.8c18.9-26.7,45.8-40,80.7-40c36.5,0,63.9,14.1,82.4,42.2c18.5,28.1,27.7,60.7,27.7,97.6
	c0,36.5-9.6,68.5-28.7,96.1C1011.3,590.6,984.5,604.4,950.2,604.4L950.2,604.4z M950.8,573.2c22.3,0,39-9.6,50.1-28.8
	c11-19.2,16.6-43.8,16.6-73.7c0-32-5.6-58.8-16.8-80.5c-11.2-21.7-28.6-32.5-52.2-32.6C903.5,357.5,881,393,881,464
	C881,536.8,904.2,573.2,950.8,573.2L950.8,573.2z"/>
<g>
	
		<linearGradient id="SVGID_1_" gradientUnits="userSpaceOnUse" x1="466.8187" y1="-83.5374" x2="466.8187" y2="321.4521" gradientTransform="matrix(1 0 0 -1 -28.5 547.86)">
		<stop  offset="0" style="stop-color:#808080;stop-opacity:0.25"/>
		<stop  offset="0.54" style="stop-color:#808080;stop-opacity:0.12"/>
		<stop  offset="1" style="stop-color:#808080;stop-opacity:0.1"/>
	</linearGradient>
	<path class="st2" d="M707.3,339.6c0.1-12.5-5.7-24.3-15.7-31.8c-0.6-23.3-17.2-42.3-38.5-45.2c-3.4-16.1-15-29.2-30.6-34.3l0,0
		c-1.9-0.6-3.8-1-5.7-1.3h-0.6l-1-0.1h-0.8h-0.8h-1.1h-0.7h-1.8c-21.8,0-39.9,16.6-43.6,38.6c-14.1-3.2-27,1-29.3,9.9
		c-0.6,2.4-0.5,4.8,0.4,7.1c2.4,6.9,10.1,13.5,20.7,16.8l1.4,0.4c0.7,0.2,1.4,0.4,2.1,0.5h0.5l0,0c-8,17.1-1.2,37.6,15.5,46.5
		c-0.3,0.2-0.6,0.4-0.9,0.6c-1.3,1.2-2.3,2.6-3,4.3c-2.5,4.5-4.5,9.2-5.9,14.2c-1,4.2-1.2,8.7-2.5,12.9c-2.3,7.6-8.2,14.3-8.9,22.4
		c-0.3,3.6,0.3,7.8-2.3,10.3c-0.6,0.5-1.3,1-2,1.5c-1.8,1.2-3.3,2.8-4.5,4.7c-0.7,1.5-1.8,2.9-3,4.1c-2.3,1.8-6.1,1.6-7.3,4.3
		c-1.1,2.7,1.8,5.9,1.1,8.8c-0.6,2.4-3.2,3.5-5.1,5.1c-2.1,2.3-3.6,5.1-4.3,8.2c-7.7,1.5-15.6-0.5-21.6-5.5c1,2.6,1.8,5.3,2.2,8.1
		c-3-3.2-8-4.2-11.7-5.8c-4.7-2.2-9-5.3-12.4-9.2l6.6-0.9l-29.4-44.6l-8.7-1.8l7.8,14.9c-1.3,0.6-2.2,1.8-2.5,3.2
		c-0.4,1.7-0.5,3.4-0.3,5.1c0.4,4,1.1,8,2,11.9l2.3,10.5c0.2,1,0.4,2,0.7,2.9c-2.9-0.1-5.9,0.2-8.7,1c-5.8-2.2-11.9-3.6-18.1-4.3
		c-1.4-0.2-2.8-0.2-4.1,0.2c-1.5,0.7-2.8,1.8-3.8,3.1c-5.1,5.9-9.6,12.2-13.4,18.9c-15.8,27.5-36.9,51.5-56.7,76.4
		c-13.6,5.6-27.4,10.8-41.2,16.1l-29.6,11.3c-5.9,2.3-12.1,4.6-18.3,4.2c-2.8-0.2-6.3-0.6-7.9,1.8c-0.8,1.2-1.4,2.5-1.8,3.9
		c-1,0-2.1,0.3-3,0.3H257c-1.9-4.7-3.5-9.7-7.1-13.1c-1.5,0.2-2.7,1.2-3.3,2.5c-0.7,1.3-1.1,2.8-2,4c-1.6,2.3-4.4,3.5-6.3,5.5
		c-2,2-3.2,5.1-5.4,7c-3,2.2-6.5,3.5-10.1,3.9c-5.5,1.3-10.8,3.3-15.8,6c-1.8,1.1-3.8,2-5.8,2.7c-2.2,0.4-4.6,0.5-6.8,0.2l-15.7-1.1
		c-1.4-0.2-2.8-0.1-4.2,0.2c-3.3,1.2-5.4,4.5-5.1,8c0.4,3.4,2.2,6.6,4.9,8.6c2.7,2,5.7,3.6,8.9,4.6c13.6,5.3,27.7,9.4,42,12.3v3.2
		c9.9,5,20.9,7.6,32,7.6c0.8,0.1,1.6-0.1,2.4-0.4c1-0.8,1.7-1.9,2-3.1c3.3-9.9,5.4-20.3,6.3-30.7l0,0c2-0.1,3.9-0.6,5.7-1.4
		c5.4-1.5,10.8,2.2,16.3,2.8c6.8,0.7,13.2-3.2,19.7-5.7c0.9-0.4,1.9-0.7,2.8-1c-1.8,2.4-4,4.5-6.5,6.3c-2.7,1.9-5.7,3.3-8.3,5.4
		c-2.2,2-4.5,3.8-7,5.5c-1.8,0.8-3.6,1.5-5.4,2.1c-2.7,1-5.2,2.3-7.6,3.8c-2.1,1.3-3.9,3-5.3,5.1c-2.2,3.1-1.4,7.5,1.7,9.6
		c0.9,0.6,1.9,1,3,1.2c2.1,0.4,4.3,0.4,6.4,0.2c8.5-0.6,16.9-1.4,25.4-2.2c3.6-0.2,7.1-0.7,10.6-1.5c1.9-0.5,3.7-1.1,5.5-1.5
		c3.2-0.8,6.4-1.3,9.7-1.4c0.9-0.1,1.9,0,2.8,0.3c2,0.6,3.4,2.5,5.4,3c1.3,0.1,2.6-0.1,3.8-0.5c6.2-1.3,12.5-2,18.8-2
		c2.8-0.2,6-0.7,7.3-3.2c1.6-3.2-1.1-6.7-2.1-10.1c-0.5-2.2-0.8-4.4-0.9-6.6c-0.5-5.5-2.1-10.9-4.7-15.8c-1.4-2.3-2.5-4.7-3.5-7.2
		c12.1-4.6,23.7-10.5,34.6-17.6c6.2-3.9,12.7-8.1,19.7-9.5c8.2-1.6,16.7,0.5,24.8,2.9c19.3,5.6,38.2,12.2,56.8,19.8
		c8.9,3.6,17.8,7.5,26.8,10.1c2.7,3.6,5.9,6.7,9.5,9.3c6.1,3.9,13.5,5.1,20.7,5.6c9.7,0.9,19.4,1.2,29.1,1.1c7.4-0.1,15-0.6,21.7-4
		c1.6-0.8,3.1-1.8,4.5-3c5.1,0.9,10.3-1.8,14.3-5.3c5.3-4.5,9.1-10.5,10.9-17.1c2.3-9.2,0.5-19.8,6.2-27.3c1.5-2,3.5-3.6,4.9-5.7
		c1.8-2.7,2.7-5.9,2.5-9.2l0.3-0.4c1.3-2.9,2.1-6.1,2.5-9.2c0.7-2.5,1.5-4.9,2.5-7.3c2.9-7.1,5.3-14.3,7.5-21.6
		c1.5-4.9,2.6-9.8,3.5-14.8c0.6-4,1-8,1.3-12.1c0.4-6.3,1.6-12.5,3.7-18.5c5-14.3,7.8-29.3,8.4-44.4c0-0.3,0-0.6,0-0.9
		c15.3-1.7,26.7-14.7,26.5-30c0-4.5-0.9-8.9-2.7-13C705.5,353.6,707.3,346.7,707.3,339.6z M563.8,513.9c0.4,1.5,0.9,3.1,1.4,4.6
		c-2.3-2.3-4.6-4.7-7-7c0.9,0.3,1.9,0.6,2.8,0.9C562,512.9,563,513.3,563.8,513.9L563.8,513.9z M552.4,506.3
		c-13.9-12-29.9-21.4-44.1-33c7.6,3.8,15.2,8.3,22.8,12.5c8.9,5.1,17.8,9.9,26.9,14.6c-1.5,2.3-3.4,4.2-5.6,5.8L552.4,506.3z
		 M558.4,476l0.7-0.7c0,1.7,0,3.3,0,4.7c-1.2-0.4-2.5-0.8-3.7-1.3c1.1-0.9,2.1-1.9,3.1-2.9L558.4,476z M436.4,508.6
		c5.7-6.5,10.7-13.5,14.8-21.1c5.5,9.6,14.4,16.5,22,24.6c-12.2-1.7-24.5-3.1-36.8-3.6L436.4,508.6z"/>
	<polygon class="st3" points="456.2,391.6 464.9,393.4 494.8,437.4 481.6,439.2 	"/>
	<path class="st4" d="M244.2,570.4c2.4,7.8,5.3,15.4,8.7,22.8c9.9-2.1,19.6-4.8,29.1-8.3c-1.8-2.9-3.9-5.6-6-8.2
		c-2.3-2.6-5.1-4.7-8.2-6.3c-3-1.3-6.7-0.3-10-0.2C253.3,570.4,248.8,570.5,244.2,570.4z"/>
	<path class="st3" d="M267.8,582.1c-4.9-1.5-7.9-6.5-9.9-11.3c-2-4.8-3.6-10-7.4-13.5c-1.5,0.2-2.7,1.2-3.3,2.5
		c-0.7,1.3-1.2,2.7-2,3.9c-1.6,2.3-4.4,3.4-6.4,5.4c-2,2-3.2,4.9-5.4,6.9c-3,2.2-6.5,3.5-10.1,3.9c-5.5,1.3-10.9,3.2-15.9,5.9
		c-1.9,1.1-3.8,1.9-5.9,2.5c-2.3,0.4-4.6,0.5-6.9,0.2l-15.8-1.1c-1.4-0.2-2.8-0.1-4.2,0.2c-3.3,1.2-5.4,4.4-5.1,7.9
		c0.4,3.4,2.3,6.5,5.1,8.5c2.7,2,5.8,3.5,9,4.6c13.8,5.2,27.9,9.2,42.4,12.1v3.1c10,5,21.1,7.6,32.2,7.6c0.9,0.1,1.7-0.1,2.5-0.4
		c1-0.8,1.7-1.9,2-3.1c3.8-11.1,6-22.6,6.6-34.3c0.3-3,0.1-5.9-0.7-8.8c-0.9-2.8,2.1-1.6-0.7-2.8"/>
	<path class="st3" d="M570.8,522.6c-46.9,2.8-93.1-10.9-140.1-12.4c-5.8-0.4-11.7,0-17.4,1.1c-6,1.6-11.8,3.8-17.3,6.7
		c-25.1,11.7-51.2,21.4-77.2,31.1l-29.8,11.1c-6,2.2-12.2,4.5-18.5,4.1c-2.8-0.2-6.3-0.6-7.9,1.8c-4.8,7.2-2.5,17.8,0.7,25.8
		c1,2.5,2.8,5.5,5.6,5.8c2-0.1,3.9-0.6,5.7-1.4c5.4-1.4,10.9,2.2,16.4,2.8c6.9,0.7,13.3-3.2,19.9-5.6c10.8-4,22.6-3.9,34-5.8
		c19.1-3.2,36.7-12,53.3-22.1c6.3-3.8,12.7-7.9,19.9-9.3c8.3-1.6,16.8,0.5,25,2.8c19.4,5.5,38.5,12,57.3,19.5
		c9.7,4.2,19.7,7.9,29.9,10.9c22.2,5.8,45.7,4.5,67.1-3.9c7.6-3,15.6-8.2,16.1-16.3c0.3-4.6-3.3-8.7-5.7-12.7
		c-1.5-2.5-3.1-5.1-4.7-7.5C594.8,537.3,585,521.7,570.8,522.6z"/>
	<path class="st5" d="M570.8,522.6c-46.9,2.8-93.1-10.9-140.1-12.4c-5.8-0.4-11.7,0-17.4,1.1c-6,1.6-11.8,3.8-17.3,6.7
		c-25.1,11.7-51.2,21.4-77.2,31.1l-29.8,11.1c-6,2.2-12.2,4.5-18.5,4.1c-2.8-0.2-6.3-0.6-7.9,1.8c-4.8,7.2-2.5,17.8,0.7,25.8
		c1,2.5,2.8,5.5,5.6,5.8c2-0.1,3.9-0.6,5.7-1.4c5.4-1.4,10.9,2.2,16.4,2.8c6.9,0.7,13.3-3.2,19.9-5.6c10.8-4,22.6-3.9,34-5.8
		c19.1-3.2,36.7-12,53.3-22.1c6.3-3.8,12.7-7.9,19.9-9.3c8.3-1.6,16.8,0.5,25,2.8c19.4,5.5,38.5,12,57.3,19.5
		c9.7,4.2,19.7,7.9,29.9,10.9c22.2,5.8,45.7,4.5,67.1-3.9c7.6-3,15.6-8.2,16.1-16.3c0.3-4.6-3.3-8.7-5.7-12.7
		c-1.5-2.5-3.1-5.1-4.7-7.5C594.8,537.3,585,521.7,570.8,522.6z"/>
	<path class="st4" d="M334.2,572.7c7.3,2.5,14.7,4.8,22.2,6.9c4.2-6.9,12-11.6,13.8-19.5c0.1-0.3,0.1-0.7,0-1
		c-0.2-0.3-0.5-0.6-0.8-0.8c-5.3-3-11.3-4.7-17.4-5.1c-4.8-0.3-7,4.7-9.2,8.2C342,562.9,336.1,573.3,334.2,572.7z"/>
	<path class="st3" d="M344.5,567.6c-4.4-0.7-8.3-3.3-10.8-7.1c-1-1.8-2.1-4.2-4.2-4.1c-2.1,0.1-2.8,2.4-3.2,4.3
		c-1.4,7.1-3.4,14.1-6.1,20.8c-2.7,6.8-7.1,12.7-13,17c-2.7,1.9-5.7,3.3-8.4,5.3c-2.2,2-4.6,3.8-7.1,5.4c-1.8,0.8-3.6,1.5-5.5,2
		c-2.7,1-5.3,2.2-7.8,3.8c-2.1,1.3-4,3-5.3,5.1c-1.3,2.1-1.5,4.8-0.5,7.1c1.1,1.9,3,3.2,5.1,3.6c2.1,0.4,4.3,0.4,6.5,0.2
		c8.5-0.6,17.1-1.4,25.6-2.2c3.6-0.2,7.2-0.7,10.7-1.5c1.9-0.5,3.7-1.1,5.6-1.5c3.2-0.8,6.5-1.3,9.8-1.4c1-0.1,1.9,0,2.8,0.3
		c2,0.6,3.4,2.5,5.4,3c1.3,0.1,2.6,0,3.9-0.5c6.2-1.3,12.6-2,19-2c2.8-0.2,6.1-0.7,7.4-3.2c1.6-3.1-1-6.6-2.1-10
		c-0.5-2.1-0.8-4.3-0.9-6.5c-0.5-5.5-2.1-10.7-4.7-15.6c-2.2-4-5.1-8.4-3.6-12.7c0.8-1.3,1.3-2.8,1.4-4.3
		C364.2,566,348.4,568.5,344.5,567.6z"/>
	<path class="st4" d="M500.6,447.4c-8.3-3.7-15-10.3-18.7-18.5c-0.8-1.8-1.4-3.6-2.2-5.4c-2.5-6-6.3-11.3-11.2-15.5
		c-1.1-1.2-2.6-1.8-4.1-1.8c-1.5,0.5-2.7,1.7-3,3.2c-0.4,1.7-0.5,3.4-0.3,5.1c0.4,3.9,1.1,7.8,2,11.7l2.3,10.4
		c0.3,1.6,0.8,3.1,1.4,4.6c1,1.7,2.3,3.3,3.8,4.5c2.1,1.9,4.2,3.8,6.3,5.6c1.2,1.1,2.5,2,3.8,2.8c2.3,1.1,4.7,1.8,7.1,2.1
		c9.3,1.7,18.8,4.2,26.6,10.1c0,0,0-6.9-0.2-7.6c-0.1-2-0.8-3.9-2-5.6C509.4,450,504.3,449.1,500.6,447.4z"/>
	<path class="st5" d="M500.6,447.4c-8.3-3.7-15-10.3-18.7-18.5c-0.8-1.8-1.4-3.6-2.2-5.4c-2.5-6-6.3-11.3-11.2-15.5
		c-1.1-1.2-2.6-1.8-4.1-1.8c-1.5,0.5-2.7,1.7-3,3.2c-0.4,1.7-0.5,3.4-0.3,5.1c0.4,3.9,1.1,7.8,2,11.7l2.3,10.4
		c0.3,1.6,0.8,3.1,1.4,4.6c1,1.7,2.3,3.3,3.8,4.5c2.1,1.9,4.2,3.8,6.3,5.6c1.2,1.1,2.5,2,3.8,2.8c2.3,1.1,4.7,1.8,7.1,2.1
		c9.3,1.7,18.8,4.2,26.6,10.1c0,0,0-6.9-0.2-7.6c-0.1-2-0.8-3.9-2-5.6C509.4,450,504.3,449.1,500.6,447.4z"/>
	<ellipse class="st3" cx="596" cy="356.8" rx="11.4" ry="11.5"/>
	<path class="st3" d="M588.9,349.9c-3.1-0.7-6.3-0.2-9,1.3c-1.3,1.2-2.4,2.6-3.1,4.2c-2.6,4.4-4.6,9.1-5.9,14
		c-1,4.2-1.2,8.5-2.5,12.7c-2.3,7.6-8.3,14.1-9,22c-0.3,3.6,0.3,7.7-2.3,10.1c-0.6,0.5-1.3,1-2.1,1.4c-1.8,1.2-3.3,2.8-4.5,4.6
		c-0.8,1.6-1.9,3.1-3.2,4.4c-2.3,1.7-6.2,1.5-7.3,4.2c-1.1,2.7,1.8,5.8,1.1,8.7c-0.6,2.4-3.2,3.5-5.1,5.1c-2.1,2.3-3.6,5.1-4.3,8.1
		c-7.7,1.5-15.7-0.5-21.8-5.5c3.2,7.8,3.2,16.5,3.4,24.9c0.4,2.7-0.4,5.4-2,7.6c9.1,0.2,17.9,2.5,26.8,4.6c3.8,1.3,7.9,1.3,11.7,0
		c2-1.1,3.8-2.5,5.4-4.3c4.8-4.9,9.9-10.1,11-17c0.3-3.8,0.4-7.7,0.2-11.5c0.5-4.8,1.4-9.4,2.9-14c2.5-9.4,4.2-19.1,5.1-28.8
		c0.5-6,5.7-10.8,8.4-16.2c5.1-10.1,10.4-20.7,10.8-32C593.9,354.9,592.7,350.4,588.9,349.9z"/>
	<path class="st5" d="M588.9,349.9c-3.1-0.7-6.3-0.2-9,1.3c-1.3,1.2-2.4,2.6-3.1,4.2c-2.6,4.4-4.6,9.1-5.9,14
		c-1,4.2-1.2,8.5-2.5,12.7c-2.3,7.6-8.3,14.1-9,22c-0.3,3.6,0.3,7.7-2.3,10.1c-0.6,0.5-1.3,1-2.1,1.4c-1.8,1.2-3.3,2.8-4.5,4.6
		c-0.8,1.6-1.9,3.1-3.2,4.4c-2.3,1.7-6.2,1.5-7.3,4.2c-1.1,2.7,1.8,5.8,1.1,8.7c-0.6,2.4-3.2,3.5-5.1,5.1c-2.1,2.3-3.6,5.1-4.3,8.1
		c-7.7,1.5-15.7-0.5-21.8-5.5c3.2,7.8,3.2,16.5,3.4,24.9c0.4,2.7-0.4,5.4-2,7.6c9.1,0.2,17.9,2.5,26.8,4.6c3.8,1.3,7.9,1.3,11.7,0
		c2-1.1,3.8-2.5,5.4-4.3c4.8-4.9,9.9-10.1,11-17c0.3-3.8,0.4-7.7,0.2-11.5c0.5-4.8,1.4-9.4,2.9-14c2.5-9.4,4.2-19.1,5.1-28.8
		c0.5-6,5.7-10.8,8.4-16.2c5.1-10.1,10.4-20.7,10.8-32C593.9,354.9,592.7,350.4,588.9,349.9z"/>
	<path class="st3" d="M578.2,532.4c-9.8-4.6-16.9-13.3-24.8-20.7c-15.1-14.2-33.5-24.2-49.3-37.4c-10.5-8.8-19.9-19-31.4-26.4
		c-10.2-6.5-21.7-10.5-33.6-11.8c-1.4-0.2-2.8-0.2-4.1,0.2c-1.5,0.7-2.8,1.7-3.8,3c-5.1,5.8-9.7,12-13.6,18.6
		c-20.1,34-48.6,62.7-72.2,94.4c-1.6,1.5-1.7,4-0.3,5.7l4.8,9.4c2.7,5.3,7,11.4,12.7,10.4c2.6-0.8,4.9-2.2,6.7-4.3l21.6-20.6
		l22.6-21.6c13.2-12.7,26.7-25.6,35.4-41.8c6.7,11.7,18.7,19.4,26.9,30.1c3.1,4.1,5.7,8.5,8.4,12.9c4.5,6.9,9.6,13.4,14.6,19.9
		l26,33.1c3.3,4.7,7.3,8.8,12,12.2c6.1,3.9,13.6,4.9,20.9,5.6c9.7,0.9,19.5,1.2,29.3,1.1c7.5-0.1,15.2-0.6,21.8-3.9
		c6.6-3.3,12.2-10.1,11.8-17.6c-0.4-3.9-1.7-7.6-3.7-11C607.8,554.8,595.6,540.6,578.2,532.4z"/>
	<ellipse class="st6" cx="603" cy="364.8" rx="8.8" ry="8.8"/>
	<path class="st4" d="M601,358.1c2,3.9,2.3,8.5,1,12.7c-1.4,4.1-3.2,8-5.6,11.7c-2.1,3.7-4.5,7.2-7.3,10.5
		c13.5,0.7,26.6-4.6,38.6-11.1c9.6-5.1,19.2-11.5,24.3-21.2c-3.1,0.7-6.3,0.1-9-1.6c-2.6-1.8-4.9-4-6.9-6.4l-6.8-7.6
		c-1.6-1.7-3-3.5-4.2-5.5c-1.5-2.7-2.1-5.8-1.8-8.9c-2.7,2.8-5.7,5.3-9,7.5c-4.8,3.2-10.1,5.5-15,8.6c-1.7,1.1-5.6,2.9-4.6,5.1
		C595.7,353.9,599.7,355.7,601,358.1z"/>
	<path class="st5" d="M601,358.1c2,3.9,2.3,8.5,1,12.7c-1.4,4.1-3.2,8-5.6,11.7c-2.1,3.7-4.5,7.2-7.3,10.5
		c13.5,0.7,26.6-4.6,38.6-11.1c9.6-5.1,19.2-11.5,24.3-21.2c-3.1,0.7-6.3,0.1-9-1.6c-2.6-1.8-4.9-4-6.9-6.4l-6.8-7.6
		c-1.6-1.7-3-3.5-4.2-5.5c-1.5-2.7-2.1-5.8-1.8-8.9c-2.7,2.8-5.7,5.3-9,7.5c-4.8,3.2-10.1,5.5-15,8.6c-1.7,1.1-5.6,2.9-4.6,5.1
		C595.7,353.9,599.7,355.7,601,358.1z"/>
	<path class="st6" d="M601.2,359.5c-2.8,4-2.8,9.3,0,13.2c0.4,0.5,1.8,3.5,2.5,3.5c0.6-0.1,1.2-0.3,1.5-0.8
		c3.1-3.2,5.9-6.6,8.6-10.1c2.7-3.6,6.5-6.1,10.9-7.2c5.3-0.8,10.4,2,15,4.7c2,1,3.7,2.4,5.1,4.2c1,1.8,1.6,3.7,1.7,5.7
		c1.3,12.1,1.8,24.3,1.5,36.4c0.2,8.8-0.3,17.5-1.7,26.2c-0.9,4.5-2.2,8.8-2.8,13.3c-0.4,4-0.6,8-0.5,12v16.7
		c-0.1,3.1,0.1,6.1,0.7,9.2c1,3.6,2.3,7.2,3.7,10.6c1.2,4.1,2.1,8.4,2.5,12.7l2.3,17.3c0.7,5.5,1.3,11.4-2.1,15.8
		c-1.5,2-3.5,3.6-5.1,5.6c-5.7,7.3-3.8,17.8-6.3,26.8c-1.9,6.6-5.7,12.5-11,16.9c-4,3.4-9.3,6.1-14.5,5.1c-7-1.3-11.3-8.7-13.2-15.6
		c-1.9-6.9-2.5-14.5-6.8-20.3c-3.4-4.8-8.7-7.8-13.4-11.2s-9.4-7.8-10.5-13.6c-0.5-2.5-0.2-5.1-0.4-7.6c-0.8-6.6-5.1-12.2-11.2-14.7
		c-3.6-1.4-8.1-1.9-10.1-5.1c5.2-3.2,8.9-8.3,10.6-14.2c1.6-5.8,2.4-11.8,2.5-17.8l1.2-20.1c0.5-9,0.8-17.9,4.7-26
		c1.8-3.6,4-7,5.8-10.6c2.4-5,4.5-10.2,6.2-15.5c2.9-8.2,5.8-16.5,8.3-24.9c1-4,2.6-7.9,4.6-11.6C594,364.8,597.1,360.2,601.2,359.5
		z"/>
	<path class="st3" d="M556.5,490.3l5.3,0.2l1.1-8c0.2-1.6,0.5-3.2,1.1-4.7c0.9-1.6,1.9-3.1,3.1-4.5c5.3-7.4,4.9-17.3,6.2-26.3
		c1.7-12,6.7-23.3,11.7-34.3l10.4-23.1c0.9-1.9,1.7-3.9,2.2-5.9c0.5-2.2,0.7-4.5,0.6-6.8c0-3.6,1.2-16.5,1.2-20.1
		c0-1.3-2.9-0.6-3.5-1.8c-1.3-2.5-3.1,4.4-5.5,5.9c-2.3,1.8-4,4.2-4.8,7c-2.2,5.8-3.6,11.9-5.7,17.8c-1.8,6-5.2,11.4-9.7,15.7
		c-2.1,1.9-4.6,3.3-6.6,5.3c-6.4,6.4-7.1,16.4-7.3,25.4C556.3,437.6,555.3,490.3,556.5,490.3z"/>
	<path class="st3" d="M633.2,349.8c-5.1,2-8,7.6-9.5,13s-2.1,11.2-4.8,16c-6.5,11.3-23.1,14.6-27.7,26.8c-1.2,4.1-1.8,8.4-1.9,12.7
		c-0.8,8.8-3.7,17.2-4.6,26c-0.4,6.8-0.3,13.6,0.5,20.4l5.8,69.1c1.1,10.2,0.5,20.5-1.8,30.4c6,0.9,12-0.1,17.4-2.9
		c5.5-2.5,10.4-5.9,15.7-8.8c9-5.1,19-8.5,26.8-15.2c1.4-1.1,2.7-2.5,3.6-4c1.3-2.9,2.1-6,2.5-9.1c0.7-2.4,1.5-4.8,2.5-7.2
		c2.9-7,5.5-14.1,7.6-21.3c1.5-4.8,2.6-9.7,3.5-14.6c0.6-3.9,1-7.9,1.3-11.9c0.4-6.2,1.6-12.4,3.7-18.3c5-14.1,7.9-28.8,8.4-43.8
		c0.2-2.2,0-4.3-0.4-6.4c-0.9-2.6-2.1-5-3.5-7.3c-2.4-4.5-3.9-9.5-6.1-14.1c-5.1-10.4-14.2-18.3-23.7-24.9
		C643.8,351.3,638.5,347.8,633.2,349.8z"/>
	<path class="st4" d="M512.1,462.6c-4.1-2.2-7.9-5-11-8.4c-1.4-1.7-2.5-3.6-4.1-5.3c-3.7-4-8.6-6.7-13.9-7.9
		c-5.3-1.2-10.7-1.7-16.1-1.5c-3.6-0.2-7.2,0.2-10.7,1.3c-3.5,1.1-6.2,4-7.1,7.6c-0.8,4.3,2,8.5,5.4,11.2c3.1,2.6,6.8,4.4,10.8,5.3
		c3.2,0.6,6.5,0.9,9.7,1.1c19.2,2,36.3,12.4,53.1,21.9c14.8,8.3,29.8,16.1,45.2,23.4c0.6-4.6,0.9-9.2,0.8-13.9
		c0-3.5-0.3-8.7-3.5-10.8c-3.8-2.4-10.1-2.9-14.4-4.3c-9.9-3.2-19.5-7.1-28.9-11.7C522.1,468.2,517,465.4,512.1,462.6z"/>
	<ellipse class="st4" cx="596" cy="319.8" rx="34.2" ry="34.4"/>
	<path class="st3" d="M643,388.8c-2.7,3.8-4.9,8-6.6,12.4c-4.2,8.7-10.9,16.2-14.2,25.4c-3.5,9.6-3.4,21-10.1,28.5
		c-1.4,1.1-2.4,2.6-3,4.3c0,1-0.2,2.1-0.4,3.1c-1,2.7-5.5,2.9-6.3,5.7c-0.2,0.8,0,1.7-0.4,2.5c-0.7,1.8-3,2.1-4.6,3.1
		c-3.3,2.3-2.5,7.5-5.1,10.7c-2.1,2.5-5.4,3.6-8.5,3c-3.1-0.7-6.1-1.8-8.9-3.3c-1-0.5-2.1-0.9-3.2-1c-1.3,0-2.6,0.5-3.7,1.2
		c-6.3,4-9.3,12-9.2,19.5c0.4,7.5,2.2,14.9,5.3,21.8c0.4,1.2,1,2.3,1.8,3.2c2.1,2.2,5.7,1.9,8.5,0.6c2.6-1.5,5.4-2.8,8.3-3.7
		c5.3-1,10.5,2.7,15.8,2.4c3.9-0.6,7.6-2.2,10.7-4.7c5.4-3.3,10.3-7.5,14.4-12.3c2.3-3.1,4.1-6.6,6.1-9.8c2.6-4,5.5-7.9,8.6-11.5
		l19.7-24.1c2-2.3,3.8-4.7,5.3-7.3c1.8-3.5,3.2-7.2,4.1-11c2.1-6.4,3.5-12.9,4.1-19.6c0.1-5.5-0.4-11-1.4-16.5
		c-0.7-5.4-2.1-10.7-4.2-15.7C661.5,386.8,651,379.4,643,388.8z"/>
	<path class="st7" d="M720.6,339c0.1-12.4-5.8-24-15.8-31.3c-0.3-22.3-16.7-41.2-38.8-44.5c-4.9-24-28.3-39.6-52.3-34.7
		c-18.4,3.7-32.4,18.6-35.1,37.1c-14.2-3.2-27.2,1-29.6,9.7c-2.5,9.2,7.6,19.9,22.6,23.9c4.7,1.3,9.6,1.8,14.5,1.4
		c7.1,10.4,18.2,17.3,30.6,19c3.7,16.9,16.6,30.2,33.4,34.4c2.3,5.5,5.8,10.4,10.3,14.3c0,1.1-0.2,2.2-0.2,3.3
		c-0.7,16,11.7,29.5,27.7,30.1c16,0.7,29.5-11.7,30.1-27.7c0-0.8,0-1.6,0-2.4c0-4.4-0.9-8.7-2.8-12.7
		C718.8,352.9,720.7,346,720.6,339z"/>
	<path class="st5" d="M554.6,276.1c2.4-8.8,15.2-12.9,29.6-9.7c3.4-21.7,22-37.8,44-38.1c1,0,2,0,2.9,0c-4.1-1.3-8.4-1.9-12.7-1.9
		c-22,0.3-40.5,16.4-44,38.1c-14.2-3.2-27.2,1-29.6,9.7c-2.5,9.2,7.6,19.9,22.6,23.9c2.8,0.8,5.7,1.3,8.5,1.5
		C561.8,295.4,552.2,285,554.6,276.1z"/>
	<path class="st5" d="M665.8,372.4c0-1.1,0-2.2,0.2-3.3c-4.5-3.9-8-8.7-10.3-14.2c-16.7-4.3-29.7-17.6-33.4-34.5
		c-12.4-1.7-23.5-8.7-30.6-19c-2.8,0.2-5.7,0.1-8.5-0.2c7.1,9.5,17.7,15.9,29.5,17.5c3.7,16.9,16.6,30.2,33.4,34.4
		c2.3,5.5,5.8,10.4,10.3,14.3c0,1.1-0.2,2.2-0.2,3.3c-0.3,16.2,12.6,29.6,28.8,29.9C673.3,396.1,665.7,384.9,665.8,372.4z"/>
	<ellipse transform="matrix(0.7963 -0.6049 0.6049 0.7963 -73.9867 433.9317)" class="st4" cx="607.3" cy="326.8" rx="5.3" ry="7"/>
</g>
</svg>
